<svg class="write-page" color-interpolation="linearRGB" width="920px" height="1654px" xmlns="http://www.w3.org/2000/svg" xmlns:xlink="http://www.w3.org/1999/xlink">
  <g class="write-content write-v3" xruling="20" yruling="20" marginLeft="20" papercolor="#FFFFFF" rulecolor="#7F0000FF">
    <g class="ruleline write-std-ruling write-scale-down" fill="none" stroke="#0000FF" stroke-opacity="0.498" stroke-width="1" shape-rendering="crispEdges" vector-effect="non-scaling-stroke">
      <rect class="pagerect" fill="#FFFFFF" stroke="none" x="0" y="0" width="920" height="1654" />
      <path class="yrule_1" d="M0 20 l920 0" />
      <path d="M0 40 l920 0" />
      <path d="M0 60 l920 0" />
      <path d="M0 80 l920 0" />
      <path d="M0 100 l920 0" />
      <path d="M0 120 l920 0" />
      <path d="M0 140 l920 0" />
      <path d="M0 160 l920 0" />
      <path d="M0 180 l920 0" />
      <path d="M0 200 l920 0" />
      <path d="M0 220 l920 0" />
      <path d="M0 240 l920 0" />
      <path d="M0 260 l920 0" />
      <path d="M0 280 l920 0" />
      <path d="M0 300 l920 0" />
      <path d="M0 320 l920 0" />
      <path d="M0 340 l920 0" />
      <path d="M0 360 l920 0" />
      <path d="M0 380 l920 0" />
      <path d="M0 400 l920 0" />
      <path d="M0 420 l920 0" />
      <path d="M0 440 l920 0" />
      <path d="M0 460 l920 0" />
      <path d="M0 480 l920 0" />
      <path d="M0 500 l920 0" />
      <path d="M0 520 l920 0" />
      <path d="M0 540 l920 0" />
      <path d="M0 560 l920 0" />
      <path d="M0 580 l920 0" />
      <path d="M0 600 l920 0" />
      <path d="M0 620 l920 0" />
      <path d="M0 640 l920 0" />
      <path d="M0 660 l920 0" />
      <path d="M0 680 l920 0" />
      <path d="M0 700 l920 0" />
      <path d="M0 720 l920 0" />
      <path d="M0 740 l920 0" />
      <path d="M0 760 l920 0" />
      <path d="M0 780 l920 0" />
      <path d="M0 800 l920 0" />
      <path d="M0 820 l920 0" />
      <path d="M0 840 l920 0" />
      <path d="M0 860 l920 0" />
      <path d="M0 880 l920 0" />
      <path d="M0 900 l920 0" />
      <path d="M0 920 l920 0" />
      <path d="M0 940 l920 0" />
      <path d="M0 960 l920 0" />
      <path d="M0 980 l920 0" />
      <path d="M0 1000 l920 0" />
      <path d="M0 1020 l920 0" />
      <path d="M0 1040 l920 0" />
      <path d="M0 1060 l920 0" />
      <path d="M0 1080 l920 0" />
      <path d="M0 1100 l920 0" />
      <path d="M0 1120 l920 0" />
      <path d="M0 1140 l920 0" />
      <path d="M0 1160 l920 0" />
      <path d="M0 1180 l920 0" />
      <path d="M0 1200 l920 0" />
      <path d="M0 1220 l920 0" />
      <path d="M0 1240 l920 0" />
      <path d="M0 1260 l920 0" />
      <path d="M0 1280 l920 0" />
      <path d="M0 1300 l920 0" />
      <path d="M0 1320 l920 0" />
      <path d="M0 1340 l920 0" />
      <path d="M0 1360 l920 0" />
      <path d="M0 1380 l920 0" />
      <path d="M0 1400 l920 0" />
      <path d="M0 1420 l920 0" />
      <path d="M0 1440 l920 0" />
      <path d="M0 1460 l920 0" />
      <path d="M0 1480 l920 0" />
      <path d="M0 1500 l920 0" />
      <path d="M0 1520 l920 0" />
      <path d="M0 1540 l920 0" />
      <path d="M0 1560 l920 0" />
      <path d="M0 1580 l920 0" />
      <path d="M0 1600 l920 0" />
      <path d="M0 1620 l920 0" />
      <path d="M0 1640 l920 0" />
      <path class="xrule_1" d="M20 0 l0 1654" />
      <path d="M40 0 l0 1654" />
      <path d="M60 0 l0 1654" />
      <path d="M80 0 l0 1654" />
      <path d="M100 0 l0 1654" />
      <path d="M120 0 l0 1654" />
      <path d="M140 0 l0 1654" />
      <path d="M160 0 l0 1654" />
      <path d="M180 0 l0 1654" />
      <path d="M200 0 l0 1654" />
      <path d="M220 0 l0 1654" />
      <path d="M240 0 l0 1654" />
      <path d="M260 0 l0 1654" />
      <path d="M280 0 l0 1654" />
      <path d="M300 0 l0 1654" />
      <path d="M320 0 l0 1654" />
      <path d="M340 0 l0 1654" />
      <path d="M360 0 l0 1654" />
      <path d="M380 0 l0 1654" />
      <path d="M400 0 l0 1654" />
      <path d="M420 0 l0 1654" />
      <path d="M440 0 l0 1654" />
      <path d="M460 0 l0 1654" />
      <path d="M480 0 l0 1654" />
      <path d="M500 0 l0 1654" />
      <path d="M520 0 l0 1654" />
      <path d="M540 0 l0 1654" />
      <path d="M560 0 l0 1654" />
      <path d="M580 0 l0 1654" />
      <path d="M600 0 l0 1654" />
      <path d="M620 0 l0 1654" />
      <path d="M640 0 l0 1654" />
      <path d="M660 0 l0 1654" />
      <path d="M680 0 l0 1654" />
      <path d="M700 0 l0 1654" />
      <path d="M720 0 l0 1654" />
      <path d="M740 0 l0 1654" />
      <path d="M760 0 l0 1654" />
      <path d="M780 0 l0 1654" />
      <path d="M800 0 l0 1654" />
      <path d="M820 0 l0 1654" />
      <path d="M840 0 l0 1654" />
      <path d="M860 0 l0 1654" />
      <path d="M880 0 l0 1654" />
      <path d="M900 0 l0 1654" />
      <path class="leftmargin" stroke="#FF0000" d="M20 0 l0 1654" />
    </g>
    <path class="write-flat-pen" fill="#FF8000" stroke-width="1.6" __comx="383.607" __comy="121.614" __timestamp="0x17ea3169029" d="M382.807 121.348 l0 1.6 1.6 0 0 -1.6" />
    <path class="write-flat-pen" fill="#FF8000" stroke-width="1.6" __comx="618.443" __comy="62.598" __timestamp="0x17ea316acf6" d="M617.643 62.331 l0 1.6 1.6 0 0 -1.6" />
    <path class="write-flat-pen" fill="#FF8000" stroke-width="1.6" __comx="322.131" __comy="740.057" __timestamp="0x17ea316fec2" d="M321.331 739.79 l0 1.6 1.6 0 0 -1.6" />
  </g>
</svg>
